<svg width="1320" height="501" viewBox="0 0 1320 501" fill="none" xmlns="http://www.w3.org/2000/svg">
<path d="M1320 0.350006H0V500.35H1320V0.350006Z" fill="url(#paint0_linear_144_21)"/>
<path d="M967.414 152.535L879.049 173.979C861.901 178.141 851.373 195.415 855.535 212.563L882.606 324.115C886.768 341.263 904.042 351.79 921.19 347.629L1009.56 326.185C1026.7 322.023 1037.23 304.749 1033.07 287.601L1006 176.049C1001.84 158.901 984.562 148.373 967.414 152.535Z" fill="white"/>
<g clip-path="url(#clip0_144_21)">
<path d="M955.177 220.333C958.093 219.625 965.117 217.668 966.324 218.404C967.777 219.29 968.819 220.716 969.221 222.37L977.003 254.44C977.11 254.878 977.084 255.338 976.929 255.761C976.774 256.184 976.497 256.551 976.133 256.817C975.769 257.082 975.335 257.234 974.885 257.253C974.435 257.272 973.989 257.157 973.604 256.922L965.073 251.723C963.62 250.837 961.875 250.565 960.221 250.966L937.86 256.392C936.206 256.794 934.46 256.522 933.007 255.636C931.554 254.751 930.512 253.324 930.111 251.67L929.354 248.552M949.757 223.792C950.158 225.446 949.886 227.191 949.001 228.645C948.115 230.098 946.688 231.14 945.035 231.541L922.673 236.968C921.02 237.369 919.594 238.411 918.708 239.865L913.509 248.396C913.274 248.781 912.931 249.087 912.522 249.277C912.114 249.467 911.658 249.531 911.213 249.461C910.768 249.392 910.353 249.192 910.022 248.887C909.69 248.582 909.456 248.186 909.35 247.748L901.567 215.678C901.166 214.024 901.438 212.279 902.324 210.825C903.209 209.372 904.636 208.33 906.29 207.929L937.468 200.363C939.122 199.961 940.868 200.233 942.321 201.119C943.774 202.005 944.816 203.431 945.217 205.085L949.757 223.792Z" stroke="black" stroke-width="3" stroke-linecap="round" stroke-linejoin="round"/>
</g>
<path d="M928.932 289.81L930.631 296.81L929.204 297.157L927.505 290.157L928.932 289.81ZM930.804 297.46L931.63 300.861L924.129 302.681L924.435 303.941L932.391 302.011L932.671 303.165L923.318 305.434L922.467 301.927L929.937 300.114L929.654 298.945L922.137 300.769L921.861 299.63L930.804 297.46ZM922.958 292.755C923.385 294.581 925.108 295.916 927.347 296.064L926.906 297.361C925.193 297.229 923.74 296.441 922.797 295.206C922.536 296.845 921.608 298.325 920.12 299.281L919.115 298.319C921.067 297.089 921.942 294.996 921.485 293.113L921.231 292.065L922.704 291.708L922.958 292.755ZM937.25 291.458C937.839 293.952 939.947 296.077 942.286 296.506L941.697 297.855C939.952 297.491 938.344 296.265 937.263 294.558C937.108 296.702 936.255 298.653 934.816 299.846L933.641 298.845C935.55 297.369 936.423 294.408 935.793 291.811L935.229 289.488L936.686 289.134L937.25 291.458ZM942.681 286.474L945.99 300.109L944.548 300.459L941.239 286.824L942.681 286.474ZM955.853 283.277L956.83 287.301L958.804 286.822L959.095 288.022L957.121 288.501L958.252 293.162L956.794 293.516L954.396 283.631L955.853 283.277ZM952.414 285.205C953.28 288.773 951.481 291.96 947.793 294.125L946.906 293.118C949.855 291.389 951.398 289.102 951.141 286.784L946.267 287.967L945.976 286.768L952.414 285.205ZM959.363 295.288L959.647 296.457L950.445 298.691L949.365 294.242L950.823 293.888L951.619 297.168L959.363 295.288ZM963.992 285.708C964.504 287.818 966.025 289.781 968.163 290.307L967.604 291.584C966.121 291.204 964.888 290.129 964.028 288.706C963.932 290.465 963.366 292.106 962.238 293.192L961.13 292.335C962.732 290.789 963.156 288.226 962.64 286.036L962.519 285.535L959.998 286.146L959.707 284.947L962.227 284.335L961.748 282.361L963.1 282.033L963.579 284.007L966.054 283.406L966.345 284.606L963.87 285.207L963.992 285.708ZM970.665 279.683L973.967 293.288L972.585 293.623L970.89 286.638L969.265 287.033L970.798 293.349L969.432 293.681L966.355 281.002L967.721 280.67L968.97 285.818L970.595 285.424L969.283 280.018L970.665 279.683ZM980.22 278.409L980.5 279.563L975.413 280.797L975.778 282.301L980.485 281.158L980.762 282.297L976.054 283.44L976.43 284.988C979.16 284.342 980.735 283.911 982.495 283.147L982.931 284.279C981.034 285.077 979.36 285.532 976.384 286.254L975.26 286.526L973.676 279.997L980.22 278.409ZM983.947 276.475L985.978 284.842L984.535 285.192L982.505 276.826L983.947 276.475ZM981.467 286.13C984.321 285.437 986.322 285.932 986.706 287.511C987.093 289.106 985.541 290.463 982.683 291.141C979.801 291.856 977.83 291.353 977.443 289.759C977.06 288.18 978.581 286.83 981.467 286.13ZM981.743 287.269C979.708 287.762 978.676 288.543 978.886 289.409C979.103 290.305 980.379 290.526 982.414 290.032C984.403 289.549 985.481 288.757 985.263 287.861C985.053 286.996 983.732 286.786 981.743 287.269Z" fill="black"/>
<path d="M1094.88 224L1003.95 224C986.305 224 972 238.305 972 255.95L972 370.74C972 388.385 986.305 402.69 1003.95 402.69L1094.88 402.69C1112.53 402.69 1126.83 388.385 1126.83 370.74L1126.83 255.95C1126.83 238.305 1112.53 224 1094.88 224Z" fill="#ECDEF5"/>
<path d="M1032.13 359.328L1032.13 366.844L1030.64 366.844L1030.64 359.328L1032.13 359.328ZM1024.42 367.516L1024.42 369.094L1030.66 369.094L1030.66 367.516L1032.13 367.516L1032.13 373.156L1022.97 373.156L1022.97 367.516L1024.42 367.516ZM1024.42 371.937L1030.66 371.937L1030.66 370.266L1024.42 370.266L1024.42 371.937ZM1024.53 359.969C1026.67 359.969 1028.25 361.297 1028.25 363.219C1028.25 365.141 1026.67 366.469 1024.53 366.453C1022.39 366.469 1020.8 365.141 1020.8 363.219C1020.8 361.297 1022.39 359.969 1024.53 359.969ZM1024.53 361.219C1023.2 361.203 1022.25 362.031 1022.25 363.219C1022.25 364.422 1023.2 365.234 1024.53 365.234C1025.84 365.234 1026.8 364.422 1026.8 363.219C1026.8 362.031 1025.84 361.203 1024.53 361.219ZM1039.57 362.016C1039.57 363.453 1040.9 364.766 1043.01 365.234L1042.37 366.375C1040.72 365.977 1039.5 365.086 1038.87 363.922C1038.23 365.227 1036.96 366.211 1035.24 366.656L1034.59 365.5C1036.73 364.969 1038.1 363.578 1038.1 362.016L1038.1 361.891L1035.05 361.891L1035.05 360.703L1038.1 360.703L1038.1 359.281L1039.59 359.281L1039.59 360.703L1042.62 360.703L1042.62 361.891L1039.57 361.891L1039.57 362.016ZM1045.66 359.328L1045.66 362.344L1047.69 362.344L1047.69 363.578L1045.66 363.578L1045.66 366.687L1044.18 366.687L1044.18 359.328L1045.66 359.328ZM1045.66 367.328L1045.66 370.75L1038.1 370.75L1038.1 372.031L1046.15 372.031L1046.15 373.187L1036.65 373.187L1036.65 369.656L1044.19 369.656L1044.19 368.484L1036.62 368.484L1036.62 367.328L1045.66 367.328ZM1060.48 359.344L1060.48 367.625L1059 367.625L1059 365.922L1055.47 365.922L1055.47 364.703L1059 364.703L1059 363L1055.61 363C1054.71 365.25 1052.61 366.836 1049.58 367.703L1048.98 366.547C1052.3 365.594 1054.23 363.82 1054.5 361.562L1049.7 361.562L1049.7 360.344L1056.11 360.344C1056.11 360.859 1056.05 361.359 1055.97 361.828L1059 361.828L1059 359.344L1060.48 359.344ZM1055.87 367.781C1058.7 367.781 1060.56 368.812 1060.58 370.516C1060.56 372.219 1058.7 373.266 1055.87 373.266C1053 373.266 1051.16 372.219 1051.16 370.516C1051.16 368.812 1053 367.781 1055.87 367.781ZM1055.87 368.953C1053.87 368.953 1052.62 369.516 1052.62 370.516C1052.62 371.5 1053.87 372.078 1055.87 372.078C1057.84 372.078 1059.08 371.5 1059.09 370.516C1059.08 369.516 1057.84 368.953 1055.87 368.953ZM1067.19 362.125C1067.18 363.797 1068.08 365.266 1069.87 365.953L1069.08 367.094C1067.83 366.602 1066.97 365.687 1066.51 364.547C1066 365.836 1065.08 366.906 1063.74 367.469L1062.93 366.312C1064.8 365.531 1065.76 363.844 1065.76 362.125L1065.76 361.656L1063.27 361.656L1063.27 360.453L1069.58 360.453L1069.58 361.656L1067.19 361.656L1067.19 362.125ZM1074.9 359.344L1074.9 367.875L1073.49 367.875L1073.49 364.172L1071.9 364.172L1071.9 367.437L1070.48 367.437L1070.48 359.594L1071.9 359.594L1071.9 362.953L1073.49 362.953L1073.49 359.344L1074.9 359.344ZM1070.21 368.172C1073.13 368.172 1074.96 369.125 1074.98 370.734C1074.96 372.344 1073.13 373.312 1070.21 373.297C1067.29 373.312 1065.46 372.344 1065.48 370.734C1065.46 369.125 1067.29 368.172 1070.21 368.172ZM1070.21 369.312C1068.18 369.312 1066.93 369.844 1066.94 370.734C1066.93 371.641 1068.18 372.156 1070.21 372.156C1072.24 372.156 1073.48 371.641 1073.49 370.734C1073.48 369.844 1072.24 369.312 1070.21 369.312Z" fill="black"/>
<path d="M1036.25 303.5C1046.88 303.5 1055.5 294.881 1055.5 284.25C1055.5 273.619 1046.88 265 1036.25 265C1025.62 265 1017 273.619 1017 284.25C1017 294.881 1025.62 303.5 1036.25 303.5Z" stroke="black" stroke-width="2" stroke-linecap="round" stroke-linejoin="round"/>
<path d="M1062.58 291.083C1069.08 291.583 1074.35 294.862 1076.47 297.312C1078.58 299.762 1080.05 302.706 1080.72 305.871C1081.4 309.037 1081.27 312.321 1080.34 315.422C1079.41 318.522 1077.71 321.338 1075.4 323.609C1073.1 325.879 1070.25 327.532 1067.14 328.413C1064.03 329.295 1060.74 329.377 1057.58 328.652C1054.43 327.926 1051.51 326.417 1049.09 324.264C1046.68 322.111 1044.84 319.383 1043.76 316.333M1033.04 277.833L1036.25 277.833L1036.25 290.667" stroke="black" stroke-width="2" stroke-linecap="round" stroke-linejoin="round"/>
<path d="M1064.19 303.115L1066.44 305.393L1057.39 314.44" stroke="black" stroke-width="2" stroke-linecap="round" stroke-linejoin="round"/>
<path d="M1217.68 144.42L1127.12 136.295C1109.54 134.718 1094.01 147.687 1092.44 165.262L1082.18 279.593C1080.6 297.168 1093.57 312.693 1111.15 314.27L1201.71 322.395C1219.29 323.972 1234.82 311.003 1236.39 293.428L1246.65 179.097C1248.23 161.522 1235.26 145.997 1217.68 144.42Z" fill="#8C5ABF"/>
<path d="M1144.37 263.659L1144 267.829L1146.02 268.011L1145.91 269.256L1143.88 269.074L1143.45 273.914L1141.97 273.782L1142.89 263.526L1144.37 263.659ZM1143.84 276.177L1143.73 277.376L1134.3 276.529L1134.71 272.047L1136.18 272.18L1135.89 275.464L1143.84 276.177ZM1137.25 263.992C1139.35 264.181 1140.82 265.756 1140.66 267.797C1140.46 269.818 1138.73 271.122 1136.63 270.933C1134.52 270.745 1133.04 269.152 1133.23 267.131C1133.4 265.09 1135.15 263.804 1137.25 263.992ZM1137.13 265.284C1135.86 265.17 1134.78 265.967 1134.68 267.26C1134.55 268.551 1135.47 269.527 1136.74 269.642C1138.03 269.757 1139.09 268.958 1139.21 267.667C1139.33 266.375 1138.42 265.4 1137.13 265.284ZM1159.13 265.014L1158.21 275.223L1156.73 275.09L1157.2 269.846L1154.54 269.607L1154.65 268.409L1157.31 268.647L1157.65 264.881L1159.13 265.014ZM1158.39 277.482L1158.28 278.68L1148.85 277.834L1149.24 273.492L1150.71 273.625L1150.43 276.768L1158.39 277.482ZM1152.24 267.236C1152.09 268.979 1153.19 270.835 1155.23 271.724L1154.36 272.838C1152.85 272.145 1151.79 270.921 1151.31 269.489C1150.56 270.968 1149.23 272.095 1147.52 272.538L1146.86 271.271C1149.08 270.732 1150.56 269.015 1150.74 267.101L1150.78 266.556L1147.77 266.285L1147.87 265.071L1155.39 265.745L1155.28 266.959L1152.29 266.691L1152.24 267.236ZM1173.22 266.263L1172.58 273.359L1171.11 273.226L1171.23 271.888L1167.69 271.571L1167.8 270.42L1171.33 270.736L1171.46 269.227L1168.1 268.925C1167.04 271.011 1164.82 272.246 1161.66 272.693L1161.26 271.433C1164.67 270.994 1166.62 269.608 1167.05 267.576L1162.38 267.157L1162.49 265.943L1168.77 266.507C1168.73 266.958 1168.66 267.383 1168.55 267.789L1171.57 268.06L1171.74 266.13L1173.22 266.263ZM1172.53 273.95L1172.21 277.483L1164.59 276.799L1164.46 278.2L1172.51 278.921L1172.4 280.104L1162.89 279.251L1163.23 275.547L1170.84 276.23L1170.95 274.985L1163.31 274.299L1163.41 273.132L1172.53 273.95ZM1187.65 267.557L1186.4 281.501L1184.99 281.374L1186.24 267.43L1187.65 267.557ZM1184.8 267.599L1183.63 280.547L1182.23 280.421L1182.87 273.325L1180.71 273.131L1180.82 271.917L1182.98 272.111L1183.39 267.473L1184.8 267.599ZM1179.54 270.751C1179.33 273.132 1180.08 275.6 1181.94 276.912L1180.95 277.922C1179.69 277.009 1178.9 275.518 1178.58 273.787C1177.91 275.562 1176.82 277.026 1175.38 277.752L1174.58 276.566C1176.66 275.545 1177.9 273.099 1178.12 270.624L1178.22 269.504L1175.66 269.274L1175.76 268.075L1182.14 268.648L1182.04 269.846L1179.64 269.631L1179.54 270.751Z" fill="white"/>
<path d="M1164.32 231.123C1166.08 231.281 1167.64 229.979 1167.8 228.214C1167.96 226.45 1166.65 224.89 1164.89 224.732C1163.12 224.574 1161.57 225.876 1161.41 227.641C1161.25 229.406 1162.55 230.965 1164.32 231.123Z" stroke="white" stroke-width="3" stroke-linecap="round" stroke-linejoin="round"/>
<path d="M1188.69 210.761L1143.95 206.748C1140.42 206.431 1137.31 209.036 1136.99 212.566L1134.7 238.13C1134.38 241.659 1136.98 244.777 1140.51 245.094L1185.25 249.107C1188.78 249.424 1191.9 246.819 1192.22 243.29L1194.51 217.726C1194.83 214.196 1192.22 211.078 1188.69 210.761Z" stroke="white" stroke-width="3" stroke-linecap="round" stroke-linejoin="round"/>
<path d="M1150.35 207.321L1151.21 197.735C1151.59 193.497 1153.63 189.584 1156.9 186.857C1160.16 184.129 1164.38 182.811 1168.62 183.191C1172.85 183.571 1176.77 185.619 1179.49 188.884C1182.22 192.149 1183.54 196.364 1183.16 200.602L1182.3 210.188" stroke="white" stroke-width="3" stroke-linecap="round" stroke-linejoin="round"/>
<path opacity="0.5" d="M77.6797 414.371C77.6797 418.5 80.6875 422.684 84.2695 424.242L83.0664 425.938C80.2227 424.639 77.7617 421.836 76.6406 418.473C75.4922 422.041 73.0449 425.145 70.2695 426.539L68.9844 424.844C72.457 423.176 75.4922 418.582 75.5195 414.371V411.199H69.7773V409.422H83.4766V411.199H77.6797V414.371ZM89.0273 406.906V431.215H86.8672V406.906H89.0273ZM112.516 408.219V410.023C112.516 411.91 112.516 414.125 111.887 417.16H115.441V418.938H93.1836V417.16H109.727C110.383 414.111 110.383 411.91 110.383 410.023V409.996H96V408.219H112.516ZM112.625 422.301V430.887H95.918V422.301H112.625ZM98.0508 423.996V429.137H110.492V423.996H98.0508ZM133.051 413.441C133.023 417.871 136.059 422.355 139.641 423.969L138.328 425.664C135.566 424.311 133.174 421.453 132.012 417.98C130.877 421.658 128.484 424.721 125.641 426.156L124.273 424.352C127.883 422.684 130.891 418.062 130.918 413.441V409.012H133.051V413.441ZM144.453 406.906V431.27H142.293V406.906H144.453ZM156.84 411.418C156.84 414.645 159.219 417.598 162.828 418.855L161.734 420.523C158.959 419.539 156.84 417.543 155.801 415.027C154.762 417.789 152.533 419.936 149.676 420.988L148.527 419.32C152.164 418.035 154.707 414.891 154.734 411.418V410.379H149.184V408.629H162.309V410.379H156.84V411.418ZM167.613 406.906V413.332H171.277V415.164H167.613V421.562H165.48V406.906H167.613ZM167.613 422.848V431.215H165.48V424.598H151.699V422.848H167.613ZM191.621 406.906V416.941H195.695V418.719H191.621V431.215H189.488V406.906H191.621ZM187.137 410.816V412.594H172.672V410.816H178.934V407.207H181.066V410.816H187.137ZM180.027 414.617C183.473 414.617 185.961 416.914 185.988 420.195C185.961 423.477 183.473 425.773 180.027 425.773C176.555 425.773 174.039 423.477 174.066 420.195C174.039 416.914 176.555 414.617 180.027 414.617ZM180.027 416.422C177.758 416.422 176.09 418.008 176.117 420.195C176.09 422.41 177.758 423.969 180.027 423.941C182.27 423.969 183.91 422.41 183.938 420.195C183.91 418.008 182.27 416.422 180.027 416.422ZM217.105 406.906V431.215H214.945V406.906H217.105ZM209.914 409.559C209.887 416.559 206.633 422.738 198.484 426.648L197.309 424.898C203.885 421.781 207.234 417.119 207.727 411.309H198.43V409.559H209.914Z" fill="white"/>
<g opacity="0.5">
<path d="M232 409.1L245.46 419.5" stroke="white" stroke-width="3" stroke-miterlimit="10" stroke-linecap="round"/>
<path d="M245.46 419.5L232 429.9" stroke="white" stroke-width="3" stroke-miterlimit="10" stroke-linecap="round"/>
</g>
<path d="M98.8438 82.2852V96.4355H103.889V101.275H98.8438V119.814H92.9375V82.2852H98.8438ZM88.6719 86.0586C88.6719 97.502 84.4883 107.264 71.6914 113.539L68.3691 109.027C77.0029 104.7 81.6377 99.0811 82.6836 90.8984H70.625V86.0586H88.6719ZM127.574 84.7461V89.4219H120.397C120.602 93.4619 122.981 97.3789 128.887 99.0605L126.098 103.695C121.976 102.485 119.187 100.106 117.526 97.0508C115.844 100.681 112.891 103.552 108.42 104.967L105.426 100.332C111.599 98.4248 114.121 93.8516 114.367 89.4219H106.985V84.7461H127.574ZM136.106 82.2852V90.7754H140.986V95.5332H136.106V104.516H130.199V82.2852H136.106ZM123.678 105.131C131.553 105.131 136.475 107.838 136.475 112.514C136.475 117.189 131.553 119.979 123.678 119.938C115.68 119.979 110.676 117.189 110.676 112.514C110.676 107.838 115.68 105.131 123.678 105.131ZM123.678 109.725C119.002 109.684 116.541 110.586 116.582 112.514C116.541 114.482 119.002 115.385 123.678 115.385C128.313 115.385 130.651 114.482 130.651 112.514C130.651 110.586 128.313 109.684 123.678 109.725ZM183.477 82.2852V91.1855H188.358V96.0664H183.477V104.393H177.571V82.2852H183.477ZM164.446 105.746V108.289H177.571V105.746H183.477V119.527H158.581V105.746H164.446ZM164.446 114.934H177.571V112.76H164.446V114.934ZM175.766 85.4023V90.0371H153.454V85.4023H161.657V82.0801H167.563V85.4023H175.766ZM164.61 90.8574C170.106 90.8574 173.961 93.5234 173.961 97.543C173.961 101.562 170.106 104.229 164.61 104.188C159.073 104.229 155.176 101.562 155.217 97.543C155.176 93.5234 159.073 90.8574 164.61 90.8574ZM164.61 95.1641C162.436 95.1641 160.959 95.9844 160.959 97.543C160.959 99.1836 162.436 99.9219 164.61 99.9219C166.825 99.9219 168.342 99.1836 168.342 97.543C168.342 95.9844 166.825 95.1641 164.61 95.1641ZM222.298 82.2852V120.02H216.432V82.2852H222.298ZM210.567 85.3613V100.209H198.714V106.443C204.271 106.402 208.906 106.115 214.053 105.254L214.546 110.012C208.598 111.078 203.061 111.324 196.048 111.324H192.602V95.5742H204.538V90.0781H192.602V85.3613H210.567ZM249.511 84.2539V88.9297H242.374C242.579 93.0312 244.978 97.2354 250.782 99.1426L247.911 103.695C243.789 102.424 241.02 99.8604 239.38 96.6406C237.739 100.188 234.847 103.06 230.479 104.434L227.444 99.7988C233.596 97.8711 236.078 93.2773 236.304 88.9297H229.085V84.2539H249.511ZM259.641 106.238V119.938H253.776V110.914H233.637V106.238H259.641ZM259.641 82.2852V104.68H253.776V95.9023H248.485V91.1035H253.776V82.2852H259.641ZM296.534 82.3262V109.232H290.628V82.3262H296.534ZM297.477 114.605V119.322H271.022V106.525H277.011V114.605H297.477ZM275.821 84.6641C281.645 84.6641 286.239 88.6836 286.239 94.2207C286.239 99.8809 281.645 103.859 275.821 103.859C269.997 103.859 265.362 99.8809 265.403 94.2207C265.362 88.6836 269.997 84.6641 275.821 84.6641ZM275.821 89.791C273.155 89.75 271.145 91.3906 271.145 94.2207C271.145 97.1738 273.155 98.7324 275.821 98.7324C278.364 98.7324 280.374 97.1738 280.374 94.2207C280.374 91.3906 278.364 89.75 275.821 89.791ZM346.613 99.2246V103.941H332.339V106.32C338.738 106.854 342.511 109.212 342.511 113.088C342.511 117.518 337.548 119.979 329.386 119.938C321.101 119.979 316.138 117.518 316.138 113.088C316.138 109.191 319.973 106.833 326.515 106.279V103.941H312.283V99.2246H346.613ZM329.386 110.668C324.423 110.668 322.126 111.406 322.167 113.088C322.126 114.729 324.423 115.508 329.386 115.508C334.226 115.508 336.605 114.729 336.605 113.088C336.605 111.406 334.226 110.668 329.386 110.668ZM343.495 83.8438V88.4785H333.898C334.923 90.6729 338.266 92.8877 345.3 93.4414L343.249 98.0762C335.887 97.4199 331.355 94.8154 329.386 91.3086C327.438 94.7949 322.947 97.4199 315.605 98.0762L313.636 93.4414C320.506 92.8877 323.849 90.6729 324.915 88.4785H315.4V83.8438H343.495ZM380.675 85.3613V88.8887C380.675 93.6055 380.675 98.9785 379.158 107.1L373.169 106.484C374.605 99.5938 374.707 94.3643 374.769 90.0371H352.949V85.3613H380.675ZM383.751 110.791V115.549H349.421V110.791H361.357V97.9941H367.222V110.791H383.751ZM418.429 82.2852V119.938H412.564V101.357H405.591V96.5586H412.564V82.2852H418.429ZM405.796 86.1816C405.796 97.748 402.392 106.977 389.062 113.58L386.068 108.986C395.337 104.393 399.07 98.7939 399.849 90.7754H387.873V86.1816H405.796ZM439.039 85.8125V100.701H430.344V106.895C433.666 106.854 436.844 106.73 440.392 106.156L440.802 110.873C436.004 111.652 431.984 111.816 427.349 111.816H424.683V96.0664H433.338V90.5703H424.642V85.8125H439.039ZM456.347 82.2852V119.938H450.769V101.029H447.734V118.133H442.361V82.8594H447.734V96.3125H450.769V82.2852H456.347ZM469.328 112.883L465.678 124.736H460.879L462.848 112.883H469.328ZM514.485 82.3262V103.736H508.619V100.496H500.662V95.7793H508.619V92.7031H501.031C498.714 98.6094 493.505 102.608 485.158 104.803L482.862 100.168C491.352 98.0146 495.187 94.1797 495.946 89.4629H484.953V84.7871H502.385C502.385 85.9355 502.303 87.0225 502.18 88.0684H508.619V82.3262H514.485ZM501.893 104.188C509.522 104.188 514.772 107.223 514.772 111.939C514.772 116.697 509.522 119.773 501.893 119.732C494.141 119.773 488.932 116.697 488.932 111.939C488.932 107.223 494.141 104.188 501.893 104.188ZM501.893 108.781C497.422 108.74 494.838 109.807 494.838 111.939C494.838 114.072 497.422 115.098 501.893 115.098C506.281 115.098 508.865 114.072 508.865 111.939C508.865 109.807 506.281 108.74 501.893 108.781ZM552.485 82.2852V119.938H546.825V101.275H544.036V118.256H538.457V82.7773H544.036V96.4766H546.825V82.2852H552.485ZM535.832 86.0586V110.668H520.698V86.0586H535.832ZM526.235 90.6523V106.074H530.336V90.6523H526.235ZM591.305 111.078V115.877H556.893V111.078H571.126V105.828H560.749V92.8672H581.626V89.3398H560.708V84.623H587.45V97.4609H566.655V101.07H588.311V105.828H576.95V111.078H591.305ZM619.317 90.2832C619.276 97.2148 621.942 104.146 628.628 106.895L625.141 111.652C620.917 109.766 618.087 106.259 616.405 101.85C614.744 106.71 611.791 110.586 607.218 112.637L603.69 107.715C610.581 104.885 613.288 97.666 613.329 90.2832V85.0742H619.317V90.2832ZM635.888 82.2852V120.02H629.94V82.2852H635.888ZM662.855 84.3359V89.0527H655.677C655.882 93.1133 658.261 97.3174 664.249 99.2246L661.255 103.777C657.153 102.465 654.364 99.9014 652.724 96.7227C651.042 100.209 648.15 102.998 643.823 104.393L640.706 99.8398C646.858 97.8916 649.381 93.4004 649.648 89.0527H642.265V84.3359H662.855ZM671.386 82.2852V91.1855H676.267V96.0664H671.386V105.008H665.48V82.2852H671.386ZM671.386 106.484V119.938H665.48V111.16H645.833V106.484H671.386ZM708.402 82.2852V96.7637H713.734V101.645H708.402V119.938H702.577V82.2852H708.402ZM700.362 87.7812V92.457H678.337V87.7812H686.499V82.9004H692.405V87.7812H700.362ZM689.452 94.2617C694.948 94.2617 699.132 98.0352 699.173 103.326C699.132 108.658 694.948 112.391 689.452 112.391C683.792 112.391 679.65 108.658 679.691 103.326C679.65 98.0352 683.792 94.2617 689.452 94.2617ZM689.452 99.0195C687.032 99.0605 685.31 100.619 685.351 103.326C685.31 106.115 687.032 107.592 689.452 107.592C691.79 107.592 693.472 106.115 693.513 103.326C693.472 100.619 691.79 99.0605 689.452 99.0195ZM728.027 91.3496C728.027 97.502 729.298 103.736 734.548 107.141L731.349 111.693C728.273 109.827 726.325 106.854 725.197 103.285C723.864 107.264 721.731 110.586 718.47 112.555L714.902 108.166C720.562 104.598 722.285 97.9941 722.285 91.6367V85.4023H728.027V91.3496ZM748.411 82.2852V119.938H742.751V82.2852H748.411ZM740.495 82.7773V118.256H734.999V99.5117H730.611V94.7129H734.999V82.7773H740.495ZM787.232 110.873V115.672H752.82V110.873H760.244V101.932C757.434 100.147 755.732 97.4814 755.732 94.1797C755.732 88.0273 761.761 83.9668 769.964 83.9668C778.167 83.9668 784.279 88.0273 784.279 94.1797C784.279 97.4199 782.618 100.045 779.89 101.809V110.873H787.232ZM769.964 88.6016C764.837 88.5605 761.556 90.5703 761.597 94.1797C761.556 97.748 764.837 99.8398 769.964 99.8398C775.05 99.8398 778.414 97.748 778.414 94.1797C778.414 90.5703 775.05 88.5605 769.964 88.6016ZM766.068 110.873H773.902V104.064C772.651 104.29 771.338 104.393 769.964 104.393C768.59 104.393 767.298 104.29 766.068 104.064V110.873Z" fill="white"/>
<path d="M87.8516 147.016V153.496H91.5703V154.945H87.8516V161.535H86.1289V147.016H87.8516ZM80.168 162.027C85.0625 162.027 88.043 163.695 88.043 166.539C88.043 169.41 85.0625 171.051 80.168 171.051C75.2461 171.051 72.2383 169.41 72.2656 166.539C72.2383 163.695 75.2461 162.027 80.168 162.027ZM80.168 163.477C76.3672 163.449 73.9336 164.652 73.9336 166.539C73.9336 168.426 76.3672 169.629 80.168 169.629C83.9414 169.629 86.4023 168.426 86.4023 166.539C86.4023 164.652 83.9414 163.449 80.168 163.477ZM72.0742 157.898C76.9961 157.898 79.8945 157.762 83.2852 157.078L83.5039 158.527C79.9766 159.211 77.0508 159.348 72.0742 159.348H70.2422V148.93H80.9336V150.379H71.9375V157.898H72.0742ZM113.37 147.016V164.734H111.647V147.016H113.37ZM114.163 169.109V170.559H97.9753V163.121H99.698V169.109H114.163ZM101.858 150.816C101.831 154.672 104.62 158.035 108.093 159.348L107.163 160.742C104.374 159.607 102.063 157.311 101.01 154.344C99.9851 157.488 97.6745 159.99 94.8855 161.18L93.9011 159.812C97.4011 158.391 100.108 154.809 100.135 150.816V148.355H101.858V150.816ZM125.927 148.82C129.728 148.82 132.353 151.09 132.38 154.398C132.353 157.734 129.728 159.977 125.927 159.977C122.154 159.977 119.474 157.734 119.474 154.398C119.474 151.09 122.154 148.82 125.927 148.82ZM125.927 150.352C123.165 150.352 121.142 152.047 121.169 154.398C121.142 156.75 123.165 158.473 125.927 158.445C128.689 158.473 130.685 156.75 130.685 154.398C130.685 152.047 128.689 150.352 125.927 150.352ZM137.658 147.016V171.16H135.935V147.016H137.658ZM118.162 164.188C122.673 164.215 128.853 164.188 134.267 163.367L134.404 164.68C128.826 165.719 122.81 165.719 118.435 165.719L118.162 164.188ZM171.522 157.406V158.828H161.378V161.48H168.624V166.621H153.995V169.41H169.39V170.832H152.327V165.309H166.956V162.848H152.245V161.48H159.655V158.828H149.538V157.406H171.522ZM168.651 147.836V155.109H152.436V147.836H168.651ZM154.132 149.258V153.688H166.929V149.258H154.132ZM193.896 147.016V164.926H192.173V156.066H186.486V154.59H192.173V147.016H193.896ZM186.541 148.902C186.513 155 181.974 159.703 175.193 161.973L174.427 160.578C180.142 158.664 184.216 155 184.654 150.352H175.63V148.902H186.541ZM194.525 169.109V170.559H178.748V163.066H180.498V169.109H194.525ZM219.086 147.016V171.133H217.418V147.016H219.086ZM214.301 147.562V169.875H212.633V158.035H209.16C208.955 162.711 206.946 165.664 203.965 165.664C200.848 165.664 198.825 162.438 198.825 157.406C198.825 152.348 200.848 149.148 203.965 149.148C206.905 149.148 208.901 151.992 209.133 156.559H212.633V147.562H214.301ZM203.965 150.762C201.832 150.762 200.438 153.414 200.465 157.406C200.438 161.371 201.832 164.051 203.965 164.051C206.125 164.051 207.52 161.371 207.52 157.406C207.52 153.414 206.125 150.762 203.965 150.762ZM239.006 159.594V164.324C241.439 164.201 243.914 163.996 246.252 163.641L246.388 164.953C240.81 165.938 234.795 165.965 230.42 165.965L230.146 164.488C232.238 164.488 234.699 164.488 237.283 164.379V159.594H239.006ZM238.978 151.746C238.978 155.109 241.822 157.762 245.349 158.801L244.529 160.195C241.617 159.266 239.197 157.338 238.131 154.727C237.105 157.475 234.699 159.498 231.814 160.441L230.967 159.102C234.467 158.008 237.256 155.246 237.256 151.746H231.513V150.27H237.283V147.18H239.006V150.27H244.885V151.746H238.978ZM249.642 147.016V171.16H247.92V147.016H249.642ZM273.657 149.559V151.992C273.629 154.945 273.629 158.227 272.782 162.984L271.032 162.766C271.907 158.227 271.907 154.891 271.934 151.992V151.008H256.868V149.559H273.657ZM276.473 166.074V167.551H254.489V166.074H263.348V157.352H265.043V166.074H276.473ZM286.87 148.82C290.671 148.82 293.296 151.09 293.323 154.398C293.296 157.734 290.671 159.977 286.87 159.977C283.097 159.977 280.417 157.734 280.417 154.398C280.417 151.09 283.097 148.82 286.87 148.82ZM286.87 150.352C284.109 150.352 282.085 152.047 282.113 154.398C282.085 156.75 284.109 158.473 286.87 158.445C289.632 158.473 291.628 156.75 291.628 154.398C291.628 152.047 289.632 150.352 286.87 150.352ZM298.601 147.016V171.16H296.878V147.016H298.601ZM279.105 164.188C283.616 164.215 289.796 164.188 295.21 163.367L295.347 164.68C289.769 165.719 283.753 165.719 279.378 165.719L279.105 164.188ZM329.048 147.016V156.996H333.122V158.473H329.048V171.133H327.325V147.016H329.048ZM322.868 149.641C322.84 156.34 319.505 162.547 311.712 166.402L310.755 165.035C317.18 161.863 320.68 156.914 321.118 151.09H311.821V149.641H322.868ZM354.757 147.016V171.133H353.035V147.016H354.757ZM343.683 154.945C343.683 159.184 346.8 163.094 350.3 164.598L349.288 165.965C346.527 164.68 343.997 161.986 342.89 158.609C341.824 162.164 339.335 165.035 336.574 166.375L335.562 165.062C339.007 163.449 342.015 159.375 342.015 154.945V152.703H336.163V151.281H341.988V147.398H343.71V151.281H349.48V152.703H343.683V154.945ZM381.479 158.336V159.73H359.412V158.336H381.479ZM378.69 161.918V166.867H363.869V169.465H379.51V170.777H362.174V165.582H376.967V163.258H362.119V161.918H378.69ZM378.608 147.836V152.594H364.006V154.973H379.018V156.285H362.311V151.363H376.885V149.121H362.229V147.836H378.608ZM387.446 167.332L385.45 174.414H383.837L385.368 167.332H387.446ZM417.893 147.016V165.391H416.17V162.684H411.084V161.371H416.17V147.016H417.893ZM418.522 169.109V170.559H401.651V163.559H403.373V169.109H418.522ZM398.069 158.336C402.553 158.336 408.623 158.309 413.819 157.625L413.955 158.91C411.727 159.266 409.375 159.484 407.065 159.621V164.461H405.342V159.703C402.813 159.799 400.393 159.812 398.315 159.812L398.069 158.336ZM405.998 148.055C409.553 148.055 411.932 149.695 411.959 152.211C411.932 154.781 409.553 156.395 405.998 156.367C402.444 156.395 400.037 154.781 400.037 152.211C400.037 149.695 402.444 148.055 405.998 148.055ZM405.998 149.395C403.428 149.367 401.678 150.543 401.705 152.211C401.678 153.934 403.428 155.055 405.998 155.055C408.514 155.055 410.291 153.934 410.291 152.211C410.291 150.543 408.514 149.367 405.998 149.395ZM441.251 147.016V157.105H445.407V158.582H441.251V171.133H439.528V147.016H441.251ZM436.958 150.98V152.43H422.548V150.98H428.974V147.262H430.696V150.98H436.958ZM429.876 154.645C433.267 154.645 435.7 156.887 435.7 160.113C435.7 163.34 433.267 165.582 429.876 165.582C426.485 165.582 424.024 163.34 424.052 160.113C424.024 156.887 426.485 154.645 429.876 154.645ZM429.876 156.094C427.47 156.121 425.692 157.816 425.692 160.113C425.692 162.41 427.47 164.105 429.876 164.078C432.282 164.105 434.06 162.41 434.06 160.113C434.06 157.816 432.282 156.121 429.876 156.094ZM466.633 154.535V155.984H450.226V147.891H451.922V154.535H466.633ZM469.203 159.484V160.906H447.136V159.484H469.203ZM466.769 169.055V170.531H450.117V163.531H451.812V169.055H466.769ZM500.661 157.406V158.828H490.517V161.48H497.763V166.621H483.134V169.41H498.528V170.832H481.466V165.309H496.095V162.848H481.384V161.48H488.794V158.828H478.677V157.406H500.661ZM497.79 147.836V155.109H481.575V147.836H497.79ZM483.271 149.258V153.688H496.068V149.258H483.271ZM523.035 147.016V164.926H521.312V156.066H515.625V154.59H521.312V147.016H523.035ZM515.68 148.902C515.652 155 511.113 159.703 504.332 161.973L503.566 160.578C509.281 158.664 513.355 155 513.793 150.352H504.769V148.902H515.68ZM523.664 169.109V170.559H507.887V163.066H509.637V169.109H523.664ZM548.225 147.016V171.133H546.557V147.016H548.225ZM543.44 147.562V169.875H541.772V158.035H538.299C538.094 162.711 536.085 165.664 533.104 165.664C529.987 165.664 527.963 162.438 527.963 157.406C527.963 152.348 529.987 149.148 533.104 149.148C536.044 149.148 538.04 151.992 538.272 156.559H541.772V147.562H543.44ZM533.104 150.762C530.971 150.762 529.577 153.414 529.604 157.406C529.577 161.371 530.971 164.051 533.104 164.051C535.264 164.051 536.659 161.371 536.659 157.406C536.659 153.414 535.264 150.762 533.104 150.762ZM568.145 159.594V164.324C570.578 164.201 573.053 163.996 575.391 163.641L575.527 164.953C569.949 165.938 563.934 165.965 559.559 165.965L559.285 164.488C561.377 164.488 563.838 164.488 566.422 164.379V159.594H568.145ZM568.117 151.746C568.117 155.109 570.961 157.762 574.488 158.801L573.668 160.195C570.756 159.266 568.336 157.338 567.27 154.727C566.244 157.475 563.838 159.498 560.953 160.441L560.105 159.102C563.605 158.008 566.395 155.246 566.395 151.746H560.652V150.27H566.422V147.18H568.145V150.27H574.023V151.746H568.117ZM578.781 147.016V171.16H577.059V147.016H578.781ZM591.776 151.609C591.776 154.836 594.428 157.844 597.846 159.047L596.944 160.414C594.21 159.402 591.981 157.324 590.956 154.727C589.93 157.625 587.552 159.908 584.694 161.016L583.792 159.648C587.237 158.391 590.053 155.164 590.053 151.637V150.215H584.393V148.766H597.354V150.215H591.776V151.609ZM603.507 162.848V171.133H601.784V164.27H587.401V162.848H603.507ZM603.507 147.016V161.48H601.784V154.945H596.561V153.496H601.784V147.016H603.507ZM616.009 148.82C619.81 148.82 622.435 151.09 622.462 154.398C622.435 157.734 619.81 159.977 616.009 159.977C612.236 159.977 609.556 157.734 609.556 154.398C609.556 151.09 612.236 148.82 616.009 148.82ZM616.009 150.352C613.247 150.352 611.224 152.047 611.251 154.398C611.224 156.75 613.247 158.473 616.009 158.445C618.771 158.473 620.767 156.75 620.767 154.398C620.767 152.047 618.771 150.352 616.009 150.352ZM627.74 147.016V171.16H626.017V147.016H627.74ZM608.244 164.188C612.755 164.215 618.935 164.188 624.349 163.367L624.486 164.68C618.908 165.719 612.892 165.719 608.517 165.719L608.244 164.188ZM658.186 147.016V156.996H662.261V158.473H658.186V171.133H656.464V147.016H658.186ZM652.007 149.641C651.979 156.34 648.643 162.547 640.85 166.402L639.893 165.035C646.319 161.863 649.819 156.914 650.257 151.09H640.96V149.641H652.007ZM676.759 148.684C676.759 149.654 676.636 150.584 676.431 151.473H682.255V147.016H683.978V161.426H682.255V158.035H675.556V156.559H682.255V152.922H675.939C674.298 156.75 670.443 159.539 665.193 160.988L664.509 159.594C670.525 157.912 674.504 154.535 674.9 150.105H665.713V148.684H676.759ZM683.978 162.52V171.105H682.255V163.941H667.873V162.52H683.978ZM699.543 147.453C704.848 147.453 707.992 148.93 707.992 151.637C707.992 154.371 704.848 155.875 699.543 155.875C694.239 155.875 691.094 154.371 691.094 151.637C691.094 148.93 694.239 147.453 699.543 147.453ZM699.543 148.793C695.414 148.793 692.871 149.887 692.871 151.637C692.871 153.469 695.414 154.535 699.543 154.535C703.7 154.535 706.242 153.469 706.242 151.637C706.242 149.887 703.7 148.793 699.543 148.793ZM710.563 157.68V159.102H688.578V157.68H710.563ZM707.664 161.398V166.566H693.035V169.41H708.43V170.832H691.367V165.227H705.996V162.766H691.285V161.398H707.664Z" fill="#ECDEF5"/>
<path opacity="0.5" d="M507.5 51H496V62.5H507.5V51Z" fill="white"/>
<path opacity="0.5" d="M542.5 51H531V62.5H542.5V51Z" fill="white"/>
<defs>
<linearGradient id="paint0_linear_144_21" x1="190.5" y1="-5.89931e-06" x2="1121" y2="917.5" gradientUnits="userSpaceOnUse">
<stop stop-color="#8322BF"/>
<stop offset="1" stop-color="#CEAAE4"/>
</linearGradient>
<clipPath id="clip0_144_21">
<rect width="77" height="77" fill="white" transform="translate(892.71 204.622) rotate(-13.6407)"/>
</clipPath>
</defs>
</svg>
